# xmcd
#
# Track frame offsets:
#	150
#	16628
#	44107
#	73385
#	113897
#	123497
#	145745
#	188259
#	216806
#	260262
#	288009
#	315919
#
# Disc length: 4730 seconds
#
# Revision: 1
# Processed by: cddbd v1.5.2PL0 Copyright (c) Steve Scherf et al.
# Submitted via: audiograbber 1.83.01
#
DISCID=a612780c
DTITLE=Grateful Dead - 80-10-31 Radio City Music Hall, New York NY
DYEAR=1900
DGENRE=
TTITLE0=Don't Ease Me In
TTITLE1=Lost Sailor
TTITLE2=Saint Of Circumstance
TTITLE3=Franklin's Tower
TTITLE4=Drums
TTITLE5=Space
TTITLE6=Fire On The Mountain
TTITLE7=Not Fade Away
TTITLE8=Stella Blue
TTITLE9=Going Down The Road Feeling Bad
TTITLE10=Good Lovin'
TTITLE11=Uncle John's Band
EXTD=
EXTT0=
EXTT1=
EXTT2=
EXTT3=
EXTT4=
EXTT5=
EXTT6=
EXTT7=
EXTT8=
EXTT9=
EXTT10=
EXTT11=
PLAYORDER=
